<?xml version="1.0" encoding="utf-8"?>
<!-- Generator: Fusion 360, Shaper Origin Export Add-In, Version 1.6.10  -->
<svg xmlns="http://www.w3.org/2000/svg" xmlns:xlink="http://www.w3.org/1999/xlink" xmlns:shaper="http://www.shapertools.com/namespaces/shaper" shaper:fusionaddin="version:1.6.10" width="15.8884333cm" height="14.3544857cm" version="1.1" x="0cm" y="0cm" viewBox="0 0 15.8884333 14.3544857" enable-background="new 0 0 15.8884333 14.3544857" xml:space="preserve"><path d="M6.505709,2.6590679 A2.2195,2.2195 4.6566616 0,1 6.2156982,3.588595 L6.2156816,3.5886238 A2.2195,2.2195 29.9998559 0,1 4.2935354,4.6983786 L-7.1558812,4.6983786 A2.2195,2.2195 90 0,1 -9.0780274,1.3691335 L-3.3533524,-8.5463522 A2.2195,2.2195 209.9998559 0,1 0.4909316,-8.5463667 L6.2156898,1.3690901 A2.2195,2.2195 329.9997117 0,1 6.5057226,2.6590758" transform="matrix(1,0,0,-1,9.3753812,4.6983786)" fill="rgb(0,0,0)" shaper:cutDepth="0.003" stroke-linecap="round" stroke-linejoin="round" /><path d="M5.9727093,2.4090769 a0.1,0.1 0 1,1 0.2,0 a0.1,0.1 0 1,1 -0.2,0z" transform="matrix(1,0,0,-1,9.3753812,4.6983786)" fill="rgb(255,255,255)" stroke="rgb(0,0,0)" stroke-width="0.0010cm" stroke-linecap="round" stroke-linejoin="round" shaper:cutDepth="0.003" /><path d="M-1.9762497,-9.0975154 a0.1,0.1 0 1,1 0.2,0 a0.1,0.1 0 1,1 -0.2,0z" transform="matrix(1,0,0,-1,9.3753812,4.6983786)" fill="rgb(255,255,255)" stroke="rgb(0,0,0)" stroke-width="0.0010cm" stroke-linecap="round" stroke-linejoin="round" shaper:cutDepth="0.003" /><path d="M-1.1160267,-0.4999978 a0.25,0.25 0 1,1 0.5,0 a0.25,0.25 0 1,1 -0.5,0z" transform="matrix(1,0,0,-1,9.3753812,4.6983786)" fill="rgb(255,255,255)" stroke="rgb(0,0,0)" stroke-width="0.0010cm" stroke-linecap="round" stroke-linejoin="round" shaper:cutDepth="0.003" /><path d="M4.077037,2.3538648 A0.25,0.25 209.9960452 1,1 4.5100504,2.6038637 A0.25,0.25 29.9960445 1,1 4.077037,2.3538648z" transform="matrix(1,0,0,-1,9.3753812,4.6983786)" fill="rgb(255,255,255)" stroke="rgb(0,0,0)" stroke-width="0.0010cm" stroke-linecap="round" stroke-linejoin="round" shaper:cutDepth="0.003" /><path d="M5.0226968,4.0545563 a0.1,0.1 0 1,1 0.2,0 a0.1,0.1 0 1,1 -0.2,0z" transform="matrix(1,0,0,-1,9.3753812,4.6983786)" fill="rgb(255,255,255)" stroke="rgb(0,0,0)" stroke-width="0.0010cm" stroke-linecap="round" stroke-linejoin="round" shaper:cutDepth="0.003" /><path d="M-8.9167896,2.9239221 a0.1,0.1 0 1,1 0.2,0 a0.1,0.1 0 1,1 -0.2,0z" transform="matrix(1,0,0,-1,9.3753812,4.6983786)" fill="rgb(255,255,255)" stroke="rgb(0,0,0)" stroke-width="0.0010cm" stroke-linecap="round" stroke-linejoin="round" shaper:cutDepth="0.003" /><path d="M-7.4058812,2.4788786 a0.25,0.25 0 1,1 0.5,0 a0.25,0.25 0 1,1 -0.5,0z" transform="matrix(1,0,0,-1,9.3753812,4.6983786)" fill="rgb(255,255,255)" stroke="rgb(0,0,0)" stroke-width="0.0010cm" stroke-linecap="round" stroke-linejoin="round" shaper:cutDepth="0.003" /><path d="M-1.6812062,-7.436607 a0.25,0.25 0 1,1 0.5,0 a0.25,0.25 0 1,1 -0.5,0z" transform="matrix(1,0,0,-1,9.3753812,4.6983786)" fill="rgb(255,255,255)" stroke="rgb(0,0,0)" stroke-width="0.0010cm" stroke-linecap="round" stroke-linejoin="round" shaper:cutDepth="0.003" /></svg>