<?xml version="1.0" encoding="utf-8"?>
<!-- Generator: Fusion 360, Shaper Origin Export Add-In, Version 1.6.10  -->
<svg xmlns="http://www.w3.org/2000/svg" xmlns:xlink="http://www.w3.org/1999/xlink" xmlns:shaper="http://www.shapertools.com/namespaces/shaper" shaper:fusionaddin="version:1.6.10" width="8.0710678cm" height="8.0710678cm" version="1.1" x="0cm" y="0cm" viewBox="0 0 8.0710678 8.0710678" enable-background="new 0 0 8.0710678 8.0710678" xml:space="preserve"><path d="M1.5276267,4.3069159 L-0.3185271,5.0761467 A3,3 67.3801351 1,1 -1.4723733,-0.6930841 L0.0276267,-0.6930841 A0.5,0.5 90 0,0 0.5276267,-1.1930841 L0.5276267,-1.228618 A1.5355339,1.5355339 180 1,1 2.0631606,0.3069159 L-1.4723733,0.3069159 A2,2 270 0,0 -1.4723733,4.3069159 L1.5276267,4.3069159z" transform="matrix(1,0,0,-1,4.4723733,5.3069159)" fill="rgb(0,0,0)" shaper:cutDepth="0.003" stroke-linecap="round" stroke-linejoin="round" /><path d="M1.8131606,-1.228618 a0.25,0.25 0 1,1 0.5,0 a0.25,0.25 0 1,1 -0.5,0z" transform="matrix(1,0,0,-1,4.4723733,5.3069159)" fill="rgb(255,255,255)" stroke="rgb(0,0,0)" stroke-width="0.0010cm" stroke-linecap="round" stroke-linejoin="round" shaper:cutDepth="0.003" /></svg>